<svg width="203" height="203" viewBox="0 0 203 203" fill="none" xmlns="http://www.w3.org/2000/svg">
<g clip-path="url(#clip0_4_2)">
<path fill-rule="evenodd" clip-rule="evenodd" d="M100 0.0108582C81.8522 0.273752 64.8573 5.29944 50.2093 13.8939L100 100.134V0.0108582ZM102 0.00120544V98.4019L151.289 13.0302C136.715 4.81019 119.905 0.0875656 102 0.00120544ZM48.4941 14.9231L97.4019 99.634L13.3677 51.1168C21.8536 36.305 33.9659 23.8369 48.4941 14.9231ZM12.3906 52.862L96.634 101.5H0C0 83.8778 4.49088 67.3044 12.3906 52.862ZM0.019311 103.5H96.9019L13.3012 151.767C5.14614 137.489 0.358283 121.039 0.019311 103.5ZM14.3102 153.494L98.134 105.098L49.7786 188.852C35.2143 180.21 22.9965 168.029 14.3102 153.494ZM103.598 99.6339L153.022 14.0298C167.923 22.8257 180.38 35.3208 189.131 50.2516L103.598 99.6339ZM190.125 51.9869L104.366 101.5H203C203 83.5208 198.325 66.6334 190.125 51.9869ZM202.981 103.5H104.098L189.199 152.633C197.658 138.155 202.635 121.395 202.981 103.5ZM188.172 154.35C179.221 168.999 166.659 181.203 151.724 189.723L102.866 105.098L188.172 154.35ZM149.977 190.697L102 107.598V202.999C119.37 202.915 135.709 198.468 149.977 190.697ZM100 202.989V105.866L51.5086 189.856C65.8586 197.992 82.3862 202.734 100 202.989Z" fill="#FFBF00"/>
</g>
<defs>
<clipPath id="clip0_4_2">
<rect width="203" height="203" fill="white"/>
</clipPath>
</defs>
</svg>
